<svg xmlns="http://www.w3.org/2000/svg" width="1400" height="860" viewBox="0 0 1400 860" fill="none">
<rect x="0" y="0" width="1400" height="860" fill="#fafafa"/>
<text x="44.0" y="52.0" font-family="monospace" font-size="18" font-weight="700" fill="#1e293b">server telemetry :: text-c32</text><text x="44.0" y="82.0" font-family="system-ui, -apple-system, sans-serif" font-size="14" font-weight="500" fill="#64748b">Harrow overlays Axum for server-side sar and vmstat signals</text><g><rect x="44.0" y="104.0" width="92" height="28" rx="4" fill="#fff7ed" stroke="#e2e8f0" stroke-width="1"/><rect x="56.0" y="112.0" width="12" height="12" rx="4" fill="#fff7ed" stroke="#ea580c" stroke-width="1.5"/><text x="74.0" y="122.0" font-family="monospace" font-size="12" font-weight="700" fill="#ea580c">harrow</text></g><g><rect x="156.0" y="104.0" width="92" height="28" rx="4" fill="#f8fafc" stroke="#e2e8f0" stroke-width="1"/><rect x="168.0" y="112.0" width="12" height="12" rx="4" fill="#f8fafc" stroke="#64748b" stroke-width="1.5"/><text x="186.0" y="122.0" font-family="monospace" font-size="12" font-weight="700" fill="#64748b">axum</text></g><g><rect x="44.0" y="140.0" width="642.0" height="260.0" rx="8" fill="#ffffff" stroke="#e2e8f0" stroke-width="1"/><rect x="44.0" y="140.0" width="642.0" height="4" rx="8" fill="#ea580c"/></g><text x="66.0" y="172.0" font-family="monospace" font-size="18" font-weight="700" fill="#ea580c">Server CPU Busy %</text><line x1="64.0" y1="348.0" x2="666.0" y2="348.0" stroke="#e2e8f0" stroke-width="1"/><text x="664.0" y="344.0" font-family="system-ui, -apple-system, sans-serif" font-size="10" font-weight="500" fill="#94a3b8">0.0 %</text><line x1="64.0" y1="297.3" x2="666.0" y2="297.3" stroke="#e2e8f0" stroke-width="1"/><text x="664.0" y="293.3" font-family="system-ui, -apple-system, sans-serif" font-size="10" font-weight="500" fill="#94a3b8">5.0 %</text><line x1="64.0" y1="246.7" x2="666.0" y2="246.7" stroke="#e2e8f0" stroke-width="1"/><text x="664.0" y="242.7" font-family="system-ui, -apple-system, sans-serif" font-size="10" font-weight="500" fill="#94a3b8">10.0 %</text><line x1="64.0" y1="196.0" x2="666.0" y2="196.0" stroke="#e2e8f0" stroke-width="1"/><text x="664.0" y="192.0" font-family="system-ui, -apple-system, sans-serif" font-size="10" font-weight="500" fill="#94a3b8">15.0 %</text><polyline fill="none" stroke="#ea580c" stroke-width="2.5" points="64.0,347.4 88.1,346.8 112.2,347.4 136.2,347.8 160.3,347.8 184.4,347.8 208.5,347.8 232.6,347.8 256.6,341.2 280.7,242.7 304.8,207.3 328.9,212.1 353.0,211.1 377.0,210.8 401.1,209.3 425.2,204.4 449.3,202.5 473.4,205.7 497.4,198.4 521.5,207.3 545.6,207.6 569.7,204.0 593.8,202.2 617.8,202.8 641.9,206.3 666.0,206.8" stroke-linejoin="round" stroke-linecap="round"/><polyline fill="none" stroke="#64748b" stroke-width="2.5" points="64.0,347.4 88.1,347.4 112.2,347.6 136.2,347.8 160.3,347.8 184.4,347.8 208.5,347.8 232.6,347.6 256.6,345.1 280.7,220.2 304.8,201.5 328.9,199.4 353.0,200.3 377.0,203.5 401.1,205.7 425.2,201.8 449.3,198.0 473.4,201.4 497.4,196.9 521.5,203.8 545.6,196.0 569.7,204.5 593.8,208.2 617.8,201.2 641.9,205.5 666.0,206.4" stroke-linejoin="round" stroke-linecap="round"/><text x="64.0" y="366.0" font-family="monospace" font-size="12" font-weight="600" fill="#ea580c">harrow avg 9.1 % peak 14.8</text><text x="64.0" y="382.0" font-family="monospace" font-size="12" font-weight="600" fill="#64748b">axum avg 9.4 % peak 15.0</text><g><rect x="714.0" y="140.0" width="642.0" height="260.0" rx="8" fill="#ffffff" stroke="#e2e8f0" stroke-width="1"/><rect x="714.0" y="140.0" width="642.0" height="4" rx="8" fill="#ea580c"/></g><text x="736.0" y="172.0" font-family="monospace" font-size="18" font-weight="700" fill="#ea580c">Server Net TX</text><line x1="734.0" y1="348.0" x2="1336.0" y2="348.0" stroke="#e2e8f0" stroke-width="1"/><text x="1334.0" y="344.0" font-family="system-ui, -apple-system, sans-serif" font-size="10" font-weight="500" fill="#94a3b8">0.0 MB/s</text><line x1="734.0" y1="297.3" x2="1336.0" y2="297.3" stroke="#e2e8f0" stroke-width="1"/><text x="1334.0" y="293.3" font-family="system-ui, -apple-system, sans-serif" font-size="10" font-weight="500" fill="#94a3b8">44.6 MB/s</text><line x1="734.0" y1="246.7" x2="1336.0" y2="246.7" stroke="#e2e8f0" stroke-width="1"/><text x="1334.0" y="242.7" font-family="system-ui, -apple-system, sans-serif" font-size="10" font-weight="500" fill="#94a3b8">89.3 MB/s</text><line x1="734.0" y1="196.0" x2="1336.0" y2="196.0" stroke="#e2e8f0" stroke-width="1"/><text x="1334.0" y="192.0" font-family="system-ui, -apple-system, sans-serif" font-size="10" font-weight="500" fill="#94a3b8">133.9 MB/s</text><polyline fill="none" stroke="#ea580c" stroke-width="2.5" points="734.0,348.0 758.1,348.0 782.2,348.0 806.2,348.0 830.3,348.0 854.4,348.0 878.5,348.0 902.6,347.8 926.6,211.2 950.7,211.0 974.8,207.2 998.9,205.8 1023.0,205.0 1047.0,205.6 1071.1,203.9 1095.2,205.0 1119.3,206.8 1143.4,206.5 1167.4,205.0 1191.5,205.1 1215.6,203.3 1239.7,202.7 1263.8,203.7 1287.8,202.4 1311.9,203.2 1336.0,204.3" stroke-linejoin="round" stroke-linecap="round"/><polyline fill="none" stroke="#64748b" stroke-width="2.5" points="734.0,348.0 758.1,348.0 782.2,348.0 806.2,348.0 830.3,348.0 854.4,348.0 878.5,348.0 902.6,323.0 926.6,199.4 950.7,198.6 974.8,200.4 998.9,197.7 1023.0,196.6 1047.0,199.3 1071.1,196.8 1095.2,196.0 1119.3,197.5 1143.4,197.5 1167.4,199.4 1191.5,198.8 1215.6,199.6 1239.7,200.7 1263.8,200.3 1287.8,201.2 1311.9,198.3 1336.0,198.0" stroke-linejoin="round" stroke-linecap="round"/><text x="734.0" y="366.0" font-family="monospace" font-size="12" font-weight="600" fill="#ea580c">harrow avg 87.0 MB/s peak 128.3</text><text x="734.0" y="382.0" font-family="monospace" font-size="12" font-weight="600" fill="#64748b">axum avg 91.9 MB/s peak 133.9</text><g><rect x="44.0" y="428.0" width="642.0" height="260.0" rx="8" fill="#ffffff" stroke="#e2e8f0" stroke-width="1"/><rect x="44.0" y="428.0" width="642.0" height="4" rx="8" fill="#ea580c"/></g><text x="66.0" y="460.0" font-family="monospace" font-size="18" font-weight="700" fill="#ea580c">VMstat Runnable (r)</text><line x1="64.0" y1="636.0" x2="666.0" y2="636.0" stroke="#e2e8f0" stroke-width="1"/><text x="664.0" y="632.0" font-family="system-ui, -apple-system, sans-serif" font-size="10" font-weight="500" fill="#94a3b8">0.0 threads</text><line x1="64.0" y1="585.3" x2="666.0" y2="585.3" stroke="#e2e8f0" stroke-width="1"/><text x="664.0" y="581.3" font-family="system-ui, -apple-system, sans-serif" font-size="10" font-weight="500" fill="#94a3b8">3.0 threads</text><line x1="64.0" y1="534.7" x2="666.0" y2="534.7" stroke="#e2e8f0" stroke-width="1"/><text x="664.0" y="530.7" font-family="system-ui, -apple-system, sans-serif" font-size="10" font-weight="500" fill="#94a3b8">6.0 threads</text><line x1="64.0" y1="484.0" x2="666.0" y2="484.0" stroke="#e2e8f0" stroke-width="1"/><text x="664.0" y="480.0" font-family="system-ui, -apple-system, sans-serif" font-size="10" font-weight="500" fill="#94a3b8">9.0 threads</text><polyline fill="none" stroke="#ea580c" stroke-width="2.5" points="64.0,636.0 88.1,636.0 112.2,636.0 136.2,636.0 160.3,636.0 184.4,636.0 208.5,636.0 232.6,636.0 256.6,636.0 280.7,636.0 304.8,517.8 328.9,534.7 353.0,517.8 377.0,517.8 401.1,517.8 425.2,534.7 449.3,551.6 473.4,568.4 497.4,534.7 521.5,517.8 545.6,534.7 569.7,484.0 593.8,484.0 617.8,517.8 641.9,551.6 666.0,534.7" stroke-linejoin="round" stroke-linecap="round"/><polyline fill="none" stroke="#64748b" stroke-width="2.5" points="64.0,636.0 88.1,636.0 112.2,636.0 136.2,636.0 160.3,636.0 184.4,636.0 208.5,636.0 232.6,636.0 256.6,636.0 280.7,619.1 304.8,551.6 328.9,534.7 353.0,551.6 377.0,484.0 401.1,534.7 425.2,551.6 449.3,500.9 473.4,551.6 497.4,500.9 521.5,517.8 545.6,602.2 569.7,568.4 593.8,551.6 617.8,534.7 641.9,568.4 666.0,517.8" stroke-linejoin="round" stroke-linecap="round"/><text x="64.0" y="654.0" font-family="monospace" font-size="12" font-weight="600" fill="#ea580c">harrow avg 4.0 threads peak 9.0</text><text x="64.0" y="670.0" font-family="monospace" font-size="12" font-weight="600" fill="#64748b">axum avg 3.6 threads peak 9.0</text><g><rect x="714.0" y="428.0" width="642.0" height="260.0" rx="8" fill="#ffffff" stroke="#e2e8f0" stroke-width="1"/><rect x="714.0" y="428.0" width="642.0" height="4" rx="8" fill="#ea580c"/></g><text x="736.0" y="460.0" font-family="monospace" font-size="18" font-weight="700" fill="#ea580c">VMstat Context Switches</text><line x1="734.0" y1="636.0" x2="1336.0" y2="636.0" stroke="#e2e8f0" stroke-width="1"/><text x="1334.0" y="632.0" font-family="system-ui, -apple-system, sans-serif" font-size="10" font-weight="500" fill="#94a3b8">0.0 /s</text><line x1="734.0" y1="585.3" x2="1336.0" y2="585.3" stroke="#e2e8f0" stroke-width="1"/><text x="1334.0" y="581.3" font-family="system-ui, -apple-system, sans-serif" font-size="10" font-weight="500" fill="#94a3b8">97085.3 /s</text><line x1="734.0" y1="534.7" x2="1336.0" y2="534.7" stroke="#e2e8f0" stroke-width="1"/><text x="1334.0" y="530.7" font-family="system-ui, -apple-system, sans-serif" font-size="10" font-weight="500" fill="#94a3b8">194170.7 /s</text><line x1="734.0" y1="484.0" x2="1336.0" y2="484.0" stroke="#e2e8f0" stroke-width="1"/><text x="1334.0" y="480.0" font-family="system-ui, -apple-system, sans-serif" font-size="10" font-weight="500" fill="#94a3b8">291256.0 /s</text><polyline fill="none" stroke="#ea580c" stroke-width="2.5" points="734.0,636.0 758.1,635.8 782.2,635.8 806.2,635.8 830.3,635.8 854.4,635.9 878.5,635.9 902.6,635.9 926.6,635.9 950.7,635.9 974.8,621.8 998.9,498.6 1023.0,498.3 1047.0,496.0 1071.1,496.0 1095.2,495.4 1119.3,495.4 1143.4,493.4 1167.4,493.2 1191.5,494.6 1215.6,493.5 1239.7,494.0 1263.8,495.8 1287.8,494.8 1311.9,493.7 1336.0,495.3" stroke-linejoin="round" stroke-linecap="round"/><polyline fill="none" stroke="#64748b" stroke-width="2.5" points="734.0,636.0 758.1,635.8 782.2,635.8 806.2,635.8 830.3,635.8 854.4,635.9 878.5,635.9 902.6,635.9 926.6,635.9 950.7,635.8 974.8,596.0 998.9,484.4 1023.0,484.3 1047.0,485.9 1071.1,485.0 1095.2,484.0 1119.3,486.4 1143.4,484.1 1167.4,484.3 1191.5,484.4 1215.6,486.4 1239.7,486.9 1263.8,486.3 1287.8,486.7 1311.9,486.8 1336.0,487.6" stroke-linejoin="round" stroke-linecap="round"/><text x="734.0" y="654.0" font-family="monospace" font-size="12" font-weight="600" fill="#ea580c">harrow avg 156803.4 /s peak 273637.0</text><text x="734.0" y="670.0" font-family="monospace" font-size="12" font-weight="600" fill="#64748b">axum avg 169336.2 /s peak 291256.0</text></svg>