<svg xmlns="http://www.w3.org/2000/svg" width="1400" height="860" viewBox="0 0 1400 860" fill="none">
<rect x="0" y="0" width="1400" height="860" fill="#fafafa"/>
<text x="44.0" y="52.0" font-family="monospace" font-size="18" font-weight="700" fill="#1e293b">server telemetry :: json-1kb-c128</text><text x="44.0" y="82.0" font-family="system-ui, -apple-system, sans-serif" font-size="14" font-weight="500" fill="#64748b">Harrow overlays Axum for server-side sar and vmstat signals</text><g><rect x="44.0" y="104.0" width="92" height="28" rx="4" fill="#fff7ed" stroke="#e2e8f0" stroke-width="1"/><rect x="56.0" y="112.0" width="12" height="12" rx="4" fill="#fff7ed" stroke="#ea580c" stroke-width="1.5"/><text x="74.0" y="122.0" font-family="monospace" font-size="12" font-weight="700" fill="#ea580c">harrow</text></g><g><rect x="156.0" y="104.0" width="92" height="28" rx="4" fill="#f8fafc" stroke="#e2e8f0" stroke-width="1"/><rect x="168.0" y="112.0" width="12" height="12" rx="4" fill="#f8fafc" stroke="#64748b" stroke-width="1.5"/><text x="186.0" y="122.0" font-family="monospace" font-size="12" font-weight="700" fill="#64748b">axum</text></g><g><rect x="44.0" y="140.0" width="642.0" height="260.0" rx="8" fill="#ffffff" stroke="#e2e8f0" stroke-width="1"/><rect x="44.0" y="140.0" width="642.0" height="4" rx="8" fill="#ea580c"/></g><text x="66.0" y="172.0" font-family="monospace" font-size="18" font-weight="700" fill="#ea580c">Server CPU Busy %</text><line x1="64.0" y1="348.0" x2="666.0" y2="348.0" stroke="#e2e8f0" stroke-width="1"/><text x="664.0" y="344.0" font-family="system-ui, -apple-system, sans-serif" font-size="10" font-weight="500" fill="#94a3b8">0.0 %</text><line x1="64.0" y1="297.3" x2="666.0" y2="297.3" stroke="#e2e8f0" stroke-width="1"/><text x="664.0" y="293.3" font-family="system-ui, -apple-system, sans-serif" font-size="10" font-weight="500" fill="#94a3b8">8.7 %</text><line x1="64.0" y1="246.7" x2="666.0" y2="246.7" stroke="#e2e8f0" stroke-width="1"/><text x="664.0" y="242.7" font-family="system-ui, -apple-system, sans-serif" font-size="10" font-weight="500" fill="#94a3b8">17.4 %</text><line x1="64.0" y1="196.0" x2="666.0" y2="196.0" stroke="#e2e8f0" stroke-width="1"/><text x="664.0" y="192.0" font-family="system-ui, -apple-system, sans-serif" font-size="10" font-weight="500" fill="#94a3b8">26.0 %</text><polyline fill="none" stroke="#ea580c" stroke-width="2.5" points="64.0,347.6 72.9,347.5 81.7,347.8 90.6,348.0 99.4,348.0 108.3,348.0 117.1,348.0 126.0,347.9 134.8,346.4 143.7,239.7 152.5,206.7 161.4,206.9 170.2,210.4 179.1,217.8 187.9,222.0 196.8,198.3 205.6,216.7 214.5,207.3 223.4,212.9 232.2,214.4 241.1,211.2 249.9,206.6 258.8,210.1 267.6,213.2 276.5,217.8 285.3,213.7 294.2,204.6 303.0,211.5 311.9,222.8 320.7,219.6 329.6,212.6 338.4,220.3 347.3,213.2 356.1,211.7 365.0,217.2 373.9,217.4 382.7,218.2 391.6,218.2 400.4,197.6 409.3,215.7 418.1,214.7 427.0,213.6 435.8,208.5 444.7,209.9 453.5,207.0 462.4,204.7 471.2,202.8 480.1,206.1 488.9,205.6 497.8,199.5 506.6,211.1 515.5,216.6 524.4,208.5 533.2,210.5 542.1,212.7 550.9,214.4 559.8,209.1 568.6,218.1 577.5,219.5 586.3,214.8 595.2,216.7 604.0,224.1 612.9,209.0 621.7,204.2 630.6,204.3 639.4,205.9 648.3,212.5 657.1,203.1 666.0,211.1" stroke-linejoin="round" stroke-linecap="round"/><polyline fill="none" stroke="#64748b" stroke-width="2.5" points="64.0,347.5 72.9,347.8 81.7,347.5 90.6,347.9 99.4,347.9 108.3,347.9 117.1,347.9 126.0,347.9 134.8,346.0 143.7,261.9 152.5,211.6 161.4,214.0 170.2,212.5 179.1,204.0 187.9,206.2 196.8,209.0 205.6,208.8 214.5,207.0 223.4,202.5 232.2,204.1 241.1,204.5 249.9,216.3 258.8,200.6 267.6,214.5 276.5,213.5 285.3,210.9 294.2,215.1 303.0,205.0 311.9,207.0 320.7,205.6 329.6,215.3 338.4,215.9 347.3,196.0 356.1,213.7 365.0,207.0 373.9,210.5 382.7,201.0 391.6,214.8 400.4,213.6 409.3,210.6 418.1,206.5 427.0,205.9 435.8,210.9 444.7,206.6 453.5,201.1 462.4,213.3 471.2,202.4 480.1,212.7 488.9,215.0 497.8,209.9 506.6,207.5 515.5,215.8 524.4,211.6 533.2,208.3 542.1,213.2 550.9,212.3 559.8,206.0 568.6,214.3 577.5,205.5 586.3,221.1 595.2,211.6 604.0,214.6 612.9,213.3 621.7,219.9 630.6,204.3 639.4,215.3 648.3,211.6 657.1,208.7 666.0,209.9" stroke-linejoin="round" stroke-linecap="round"/><text x="64.0" y="366.0" font-family="monospace" font-size="12" font-weight="600" fill="#ea580c">harrow avg 20.3 % peak 25.8</text><text x="64.0" y="382.0" font-family="monospace" font-size="12" font-weight="600" fill="#64748b">axum avg 20.5 % peak 26.0</text><g><rect x="714.0" y="140.0" width="642.0" height="260.0" rx="8" fill="#ffffff" stroke="#e2e8f0" stroke-width="1"/><rect x="714.0" y="140.0" width="642.0" height="4" rx="8" fill="#ea580c"/></g><text x="736.0" y="172.0" font-family="monospace" font-size="18" font-weight="700" fill="#ea580c">Server Net TX</text><line x1="734.0" y1="348.0" x2="1336.0" y2="348.0" stroke="#e2e8f0" stroke-width="1"/><text x="1334.0" y="344.0" font-family="system-ui, -apple-system, sans-serif" font-size="10" font-weight="500" fill="#94a3b8">0.0 MB/s</text><line x1="734.0" y1="297.3" x2="1336.0" y2="297.3" stroke="#e2e8f0" stroke-width="1"/><text x="1334.0" y="293.3" font-family="system-ui, -apple-system, sans-serif" font-size="10" font-weight="500" fill="#94a3b8">418.8 MB/s</text><line x1="734.0" y1="246.7" x2="1336.0" y2="246.7" stroke="#e2e8f0" stroke-width="1"/><text x="1334.0" y="242.7" font-family="system-ui, -apple-system, sans-serif" font-size="10" font-weight="500" fill="#94a3b8">837.6 MB/s</text><line x1="734.0" y1="196.0" x2="1336.0" y2="196.0" stroke="#e2e8f0" stroke-width="1"/><text x="1334.0" y="192.0" font-family="system-ui, -apple-system, sans-serif" font-size="10" font-weight="500" fill="#94a3b8">1256.4 MB/s</text><polyline fill="none" stroke="#ea580c" stroke-width="2.5" points="734.0,348.0 742.9,348.0 751.7,348.0 760.6,348.0 769.4,348.0 778.3,348.0 787.1,348.0 796.0,342.2 804.8,207.0 813.7,206.4 822.5,205.7 831.4,205.7 840.2,206.8 849.1,206.1 857.9,207.1 866.8,206.6 875.6,206.1 884.5,206.6 893.4,206.4 902.2,207.1 911.1,206.6 919.9,205.6 928.8,206.6 937.6,206.2 946.5,206.2 955.3,206.2 964.2,205.1 973.0,205.4 981.9,206.2 990.7,206.8 999.6,206.9 1008.4,206.2 1017.3,207.0 1026.1,205.9 1035.0,206.4 1043.9,206.1 1052.7,206.0 1061.6,205.8 1070.4,205.4 1079.3,204.9 1088.1,205.3 1097.0,205.3 1105.8,205.2 1114.7,204.3 1123.5,204.8 1132.4,205.0 1141.2,204.4 1150.1,204.8 1158.9,204.6 1167.8,205.1 1176.6,204.7 1185.5,204.9 1194.4,204.3 1203.2,206.9 1212.1,204.8 1220.9,205.1 1229.8,204.9 1238.6,205.5 1247.5,205.9 1256.3,204.6 1265.2,204.6 1274.0,204.6 1282.9,205.4 1291.7,204.0 1300.6,205.0 1309.4,204.5 1318.3,204.3 1327.1,204.5 1336.0,203.3" stroke-linejoin="round" stroke-linecap="round"/><polyline fill="none" stroke="#64748b" stroke-width="2.5" points="734.0,348.0 742.9,348.0 751.7,348.0 760.6,348.0 769.4,348.0 778.3,348.0 787.1,348.0 796.0,348.0 804.8,209.6 813.7,197.9 822.5,198.5 831.4,198.2 840.2,199.3 849.1,198.2 857.9,197.1 866.8,198.0 875.6,198.0 884.5,198.4 893.4,199.2 902.2,197.4 911.1,197.2 919.9,198.2 928.8,198.2 937.6,199.1 946.5,198.9 955.3,198.4 964.2,199.4 973.0,198.3 981.9,198.2 990.7,197.5 999.6,198.8 1008.4,197.1 1017.3,197.0 1026.1,197.0 1035.0,196.9 1043.9,197.4 1052.7,197.6 1061.6,196.8 1070.4,198.0 1079.3,198.5 1088.1,197.0 1097.0,197.3 1105.8,197.5 1114.7,197.9 1123.5,197.4 1132.4,196.9 1141.2,196.0 1150.1,197.3 1158.9,197.2 1167.8,198.3 1176.6,197.9 1185.5,197.8 1194.4,198.3 1203.2,197.4 1212.1,199.6 1220.9,198.8 1229.8,198.8 1238.6,198.0 1247.5,198.6 1256.3,198.6 1265.2,197.7 1274.0,198.7 1282.9,198.6 1291.7,200.3 1300.6,198.8 1309.4,198.9 1318.3,198.9 1327.1,198.3 1336.0,198.3" stroke-linejoin="round" stroke-linecap="round"/><text x="734.0" y="366.0" font-family="monospace" font-size="12" font-weight="600" fill="#ea580c">harrow avg 1041.5 MB/s peak 1195.8</text><text x="734.0" y="382.0" font-family="monospace" font-size="12" font-weight="600" fill="#64748b">axum avg 1094.3 MB/s peak 1256.4</text><g><rect x="44.0" y="428.0" width="642.0" height="260.0" rx="8" fill="#ffffff" stroke="#e2e8f0" stroke-width="1"/><rect x="44.0" y="428.0" width="642.0" height="4" rx="8" fill="#ea580c"/></g><text x="66.0" y="460.0" font-family="monospace" font-size="18" font-weight="700" fill="#ea580c">VMstat Runnable (r)</text><line x1="64.0" y1="636.0" x2="666.0" y2="636.0" stroke="#e2e8f0" stroke-width="1"/><text x="664.0" y="632.0" font-family="system-ui, -apple-system, sans-serif" font-size="10" font-weight="500" fill="#94a3b8">0.0 threads</text><line x1="64.0" y1="585.3" x2="666.0" y2="585.3" stroke="#e2e8f0" stroke-width="1"/><text x="664.0" y="581.3" font-family="system-ui, -apple-system, sans-serif" font-size="10" font-weight="500" fill="#94a3b8">7.0 threads</text><line x1="64.0" y1="534.7" x2="666.0" y2="534.7" stroke="#e2e8f0" stroke-width="1"/><text x="664.0" y="530.7" font-family="system-ui, -apple-system, sans-serif" font-size="10" font-weight="500" fill="#94a3b8">14.0 threads</text><line x1="64.0" y1="484.0" x2="666.0" y2="484.0" stroke="#e2e8f0" stroke-width="1"/><text x="664.0" y="480.0" font-family="system-ui, -apple-system, sans-serif" font-size="10" font-weight="500" fill="#94a3b8">21.0 threads</text><polyline fill="none" stroke="#ea580c" stroke-width="2.5" points="64.0,636.0 72.9,636.0 81.7,636.0 90.6,636.0 99.4,636.0 108.3,636.0 117.1,636.0 126.0,636.0 134.8,636.0 143.7,636.0 152.5,585.3 161.4,491.2 170.2,527.4 179.1,556.4 187.9,491.2 196.8,570.9 205.6,520.2 214.5,578.1 223.4,520.2 232.2,498.5 241.1,563.6 249.9,520.2 258.8,570.9 267.6,527.4 276.5,534.7 285.3,549.1 294.2,621.5 303.0,541.9 311.9,498.5 320.7,578.1 329.6,621.5 338.4,534.7 347.3,628.8 356.1,621.5 365.0,534.7 373.9,607.0 382.7,614.3 391.6,563.6 400.4,614.3 409.3,556.4 418.1,578.1 427.0,563.6 435.8,585.3 444.7,599.8 453.5,570.9 462.4,541.9 471.2,585.3 480.1,491.2 488.9,614.3 497.8,534.7 506.6,628.8 515.5,621.5 524.4,556.4 533.2,578.1 542.1,549.1 550.9,549.1 559.8,621.5 568.6,578.1 577.5,513.0 586.3,570.9 595.2,578.1 604.0,570.9 612.9,592.6 621.7,592.6 630.6,585.3 639.4,498.5 648.3,527.4 657.1,614.3 666.0,549.1" stroke-linejoin="round" stroke-linecap="round"/><polyline fill="none" stroke="#64748b" stroke-width="2.5" points="64.0,636.0 72.9,636.0 81.7,636.0 90.6,636.0 99.4,636.0 108.3,636.0 117.1,636.0 126.0,636.0 134.8,636.0 143.7,636.0 152.5,585.3 161.4,527.4 170.2,607.0 179.1,570.9 187.9,599.8 196.8,578.1 205.6,621.5 214.5,570.9 223.4,484.0 232.2,614.3 241.1,549.1 249.9,556.4 258.8,614.3 267.6,599.8 276.5,563.6 285.3,527.4 294.2,556.4 303.0,628.8 311.9,578.1 320.7,614.3 329.6,599.8 338.4,556.4 347.3,541.9 356.1,484.0 365.0,549.1 373.9,585.3 382.7,541.9 391.6,585.3 400.4,570.9 409.3,578.1 418.1,556.4 427.0,578.1 435.8,570.9 444.7,607.0 453.5,534.7 462.4,585.3 471.2,563.6 480.1,614.3 488.9,585.3 497.8,578.1 506.6,563.6 515.5,527.4 524.4,628.8 533.2,549.1 542.1,621.5 550.9,549.1 559.8,556.4 568.6,585.3 577.5,541.9 586.3,628.8 595.2,498.5 604.0,599.8 612.9,563.6 621.7,599.8 630.6,563.6 639.4,628.8 648.3,628.8 657.1,585.3 666.0,592.6" stroke-linejoin="round" stroke-linecap="round"/><text x="64.0" y="654.0" font-family="monospace" font-size="12" font-weight="600" fill="#ea580c">harrow avg 8.5 threads peak 20.0</text><text x="64.0" y="670.0" font-family="monospace" font-size="12" font-weight="600" fill="#64748b">axum avg 7.2 threads peak 21.0</text><g><rect x="714.0" y="428.0" width="642.0" height="260.0" rx="8" fill="#ffffff" stroke="#e2e8f0" stroke-width="1"/><rect x="714.0" y="428.0" width="642.0" height="4" rx="8" fill="#ea580c"/></g><text x="736.0" y="460.0" font-family="monospace" font-size="18" font-weight="700" fill="#ea580c">VMstat Context Switches</text><line x1="734.0" y1="636.0" x2="1336.0" y2="636.0" stroke="#e2e8f0" stroke-width="1"/><text x="1334.0" y="632.0" font-family="system-ui, -apple-system, sans-serif" font-size="10" font-weight="500" fill="#94a3b8">0.0 /s</text><line x1="734.0" y1="585.3" x2="1336.0" y2="585.3" stroke="#e2e8f0" stroke-width="1"/><text x="1334.0" y="581.3" font-family="system-ui, -apple-system, sans-serif" font-size="10" font-weight="500" fill="#94a3b8">100204.3 /s</text><line x1="734.0" y1="534.7" x2="1336.0" y2="534.7" stroke="#e2e8f0" stroke-width="1"/><text x="1334.0" y="530.7" font-family="system-ui, -apple-system, sans-serif" font-size="10" font-weight="500" fill="#94a3b8">200408.7 /s</text><line x1="734.0" y1="484.0" x2="1336.0" y2="484.0" stroke="#e2e8f0" stroke-width="1"/><text x="1334.0" y="480.0" font-family="system-ui, -apple-system, sans-serif" font-size="10" font-weight="500" fill="#94a3b8">300613.0 /s</text><polyline fill="none" stroke="#ea580c" stroke-width="2.5" points="734.0,636.0 742.9,635.8 751.7,635.7 760.6,635.8 769.4,635.9 778.3,635.9 787.1,635.9 796.0,635.9 804.8,635.9 813.7,635.9 822.5,612.0 831.4,502.3 840.2,502.1 849.1,502.0 857.9,501.3 866.8,502.3 875.6,501.4 884.5,502.1 893.4,501.4 902.2,501.4 911.1,500.6 919.9,501.3 928.8,502.0 937.6,502.2 946.5,502.3 955.3,502.5 964.2,500.7 973.0,501.1 981.9,501.9 990.7,500.7 999.6,501.5 1008.4,501.9 1017.3,501.8 1026.1,501.6 1035.0,501.2 1043.9,502.2 1052.7,500.8 1061.6,501.8 1070.4,501.1 1079.3,500.6 1088.1,501.2 1097.0,500.2 1105.8,499.5 1114.7,498.9 1123.5,499.2 1132.4,499.2 1141.2,499.2 1150.1,498.5 1158.9,499.1 1167.8,499.0 1176.6,499.5 1185.5,499.3 1194.4,499.5 1203.2,499.0 1212.1,500.0 1220.9,500.0 1229.8,500.9 1238.6,499.4 1247.5,499.0 1256.3,499.6 1265.2,500.3 1274.0,500.5 1282.9,499.1 1291.7,498.9 1300.6,499.4 1309.4,499.3 1318.3,498.6 1327.1,498.9 1336.0,499.9" stroke-linejoin="round" stroke-linecap="round"/><polyline fill="none" stroke="#64748b" stroke-width="2.5" points="734.0,636.0 742.9,635.8 751.7,635.7 760.6,635.8 769.4,635.9 778.3,635.9 787.1,635.9 796.0,635.9 804.8,635.9 813.7,635.9 822.5,634.3 831.4,484.4 840.2,485.3 849.1,485.6 857.9,485.4 866.8,484.3 875.6,484.9 884.5,486.4 893.4,486.5 902.2,487.4 911.1,488.4 919.9,485.6 928.8,486.0 937.6,485.3 946.5,486.3 955.3,486.0 964.2,486.1 973.0,485.6 981.9,485.4 990.7,487.6 999.6,486.4 1008.4,485.6 1017.3,485.6 1026.1,484.3 1035.0,484.5 1043.9,484.3 1052.7,484.3 1061.6,484.1 1070.4,484.0 1079.3,484.2 1088.1,484.3 1097.0,485.7 1105.8,485.9 1114.7,484.8 1123.5,484.4 1132.4,485.1 1141.2,485.1 1150.1,484.9 1158.9,485.2 1167.8,486.3 1176.6,485.1 1185.5,484.6 1194.4,486.0 1203.2,486.0 1212.1,485.7 1220.9,485.5 1229.8,485.8 1238.6,485.8 1247.5,486.6 1256.3,485.8 1265.2,486.0 1274.0,485.2 1282.9,484.8 1291.7,484.1 1300.6,485.9 1309.4,485.9 1318.3,486.3 1327.1,485.8 1336.0,486.0" stroke-linejoin="round" stroke-linecap="round"/><text x="734.0" y="654.0" font-family="monospace" font-size="12" font-weight="600" fill="#ea580c">harrow avg 225924.5 /s peak 272028.0</text><text x="734.0" y="670.0" font-family="monospace" font-size="12" font-weight="600" fill="#64748b">axum avg 250303.3 /s peak 300613.0</text></svg>