<svg xmlns="http://www.w3.org/2000/svg" width="1400" height="860" viewBox="0 0 1400 860" fill="none">
<rect x="0" y="0" width="1400" height="860" fill="#fafafa"/>
<text x="44.0" y="52.0" font-family="monospace" font-size="18" font-weight="700" fill="#1e293b">server telemetry :: text-c128</text><text x="44.0" y="82.0" font-family="system-ui, -apple-system, sans-serif" font-size="14" font-weight="500" fill="#64748b">Harrow overlays Axum for server-side sar and vmstat signals</text><g><rect x="44.0" y="104.0" width="92" height="28" rx="4" fill="#fff7ed" stroke="#e2e8f0" stroke-width="1"/><rect x="56.0" y="112.0" width="12" height="12" rx="4" fill="#fff7ed" stroke="#ea580c" stroke-width="1.5"/><text x="74.0" y="122.0" font-family="monospace" font-size="12" font-weight="700" fill="#ea580c">harrow</text></g><g><rect x="156.0" y="104.0" width="92" height="28" rx="4" fill="#f8fafc" stroke="#e2e8f0" stroke-width="1"/><rect x="168.0" y="112.0" width="12" height="12" rx="4" fill="#f8fafc" stroke="#64748b" stroke-width="1.5"/><text x="186.0" y="122.0" font-family="monospace" font-size="12" font-weight="700" fill="#64748b">axum</text></g><g><rect x="44.0" y="140.0" width="642.0" height="260.0" rx="8" fill="#ffffff" stroke="#e2e8f0" stroke-width="1"/><rect x="44.0" y="140.0" width="642.0" height="4" rx="8" fill="#ea580c"/></g><text x="66.0" y="172.0" font-family="monospace" font-size="18" font-weight="700" fill="#ea580c">Server CPU Busy %</text><line x1="64.0" y1="348.0" x2="666.0" y2="348.0" stroke="#e2e8f0" stroke-width="1"/><text x="664.0" y="344.0" font-family="system-ui, -apple-system, sans-serif" font-size="10" font-weight="500" fill="#94a3b8">0.0 %</text><line x1="64.0" y1="297.3" x2="666.0" y2="297.3" stroke="#e2e8f0" stroke-width="1"/><text x="664.0" y="293.3" font-family="system-ui, -apple-system, sans-serif" font-size="10" font-weight="500" fill="#94a3b8">7.4 %</text><line x1="64.0" y1="246.7" x2="666.0" y2="246.7" stroke="#e2e8f0" stroke-width="1"/><text x="664.0" y="242.7" font-family="system-ui, -apple-system, sans-serif" font-size="10" font-weight="500" fill="#94a3b8">14.9 %</text><line x1="64.0" y1="196.0" x2="666.0" y2="196.0" stroke="#e2e8f0" stroke-width="1"/><text x="664.0" y="192.0" font-family="system-ui, -apple-system, sans-serif" font-size="10" font-weight="500" fill="#94a3b8">22.3 %</text><polyline fill="none" stroke="#ea580c" stroke-width="2.5" points="64.0,347.5 72.9,347.5 81.7,347.9 90.6,348.0 99.4,348.0 108.3,348.0 117.1,348.0 126.0,347.9 134.8,347.7 143.7,245.8 152.5,213.1 161.4,204.8 170.2,215.1 179.1,205.0 187.9,213.0 196.8,213.2 205.6,219.3 214.5,205.4 223.4,213.4 232.2,217.0 241.1,211.6 249.9,216.5 258.8,216.8 267.6,216.1 276.5,215.1 285.3,207.6 294.2,219.7 303.0,208.9 311.9,219.6 320.7,208.9 329.6,214.0 338.4,208.0 347.3,208.9 356.1,213.5 365.0,212.3 373.9,212.6 382.7,212.9 391.6,203.4 400.4,214.7 409.3,207.8 418.1,208.8 427.0,210.6 435.8,215.9 444.7,206.4 453.5,204.8 462.4,213.9 471.2,209.8 480.1,211.7 488.9,215.6 497.8,214.0 506.6,219.2 515.5,212.4 524.4,202.7 533.2,201.9 542.1,206.7 550.9,205.1 559.8,218.3 568.6,211.9 577.5,209.1 586.3,217.2 595.2,216.1 604.0,220.5 612.9,211.9 621.7,213.8 630.6,208.7 639.4,218.3 648.3,212.7 657.1,217.8 666.0,210.6" stroke-linejoin="round" stroke-linecap="round"/><polyline fill="none" stroke="#64748b" stroke-width="2.5" points="64.0,347.7 72.9,347.9 81.7,347.6 90.6,348.0 99.4,348.0 108.3,348.0 117.1,348.0 126.0,348.0 134.8,345.7 143.7,272.8 152.5,199.1 161.4,208.5 170.2,210.5 179.1,207.6 187.9,209.0 196.8,209.9 205.6,218.9 214.5,205.1 223.4,217.2 232.2,210.7 241.1,202.3 249.9,200.0 258.8,201.9 267.6,220.2 276.5,207.4 285.3,209.4 294.2,208.7 303.0,205.1 311.9,215.3 320.7,200.6 329.6,216.6 338.4,196.0 347.3,211.0 356.1,212.6 365.0,218.7 373.9,211.0 382.7,218.5 391.6,212.0 400.4,211.5 409.3,208.5 418.1,202.3 427.0,213.6 435.8,208.7 444.7,212.6 453.5,212.6 462.4,212.9 471.2,213.4 480.1,210.5 488.9,199.2 497.8,217.2 506.6,218.9 515.5,223.6 524.4,224.0 533.2,218.7 542.1,210.2 550.9,216.0 559.8,217.6 568.6,219.8 577.5,219.1 586.3,209.2 595.2,222.7 604.0,215.8 612.9,204.3 621.7,212.3 630.6,208.5 639.4,210.4 648.3,201.0 657.1,205.5 666.0,217.5" stroke-linejoin="round" stroke-linecap="round"/><text x="64.0" y="366.0" font-family="monospace" font-size="12" font-weight="600" fill="#ea580c">harrow avg 17.3 % peak 21.5</text><text x="64.0" y="382.0" font-family="monospace" font-size="12" font-weight="600" fill="#64748b">axum avg 17.3 % peak 22.3</text><g><rect x="714.0" y="140.0" width="642.0" height="260.0" rx="8" fill="#ffffff" stroke="#e2e8f0" stroke-width="1"/><rect x="714.0" y="140.0" width="642.0" height="4" rx="8" fill="#ea580c"/></g><text x="736.0" y="172.0" font-family="monospace" font-size="18" font-weight="700" fill="#ea580c">Server Net TX</text><line x1="734.0" y1="348.0" x2="1336.0" y2="348.0" stroke="#e2e8f0" stroke-width="1"/><text x="1334.0" y="344.0" font-family="system-ui, -apple-system, sans-serif" font-size="10" font-weight="500" fill="#94a3b8">0.0 MB/s</text><line x1="734.0" y1="297.3" x2="1336.0" y2="297.3" stroke="#e2e8f0" stroke-width="1"/><text x="1334.0" y="293.3" font-family="system-ui, -apple-system, sans-serif" font-size="10" font-weight="500" fill="#94a3b8">62.9 MB/s</text><line x1="734.0" y1="246.7" x2="1336.0" y2="246.7" stroke="#e2e8f0" stroke-width="1"/><text x="1334.0" y="242.7" font-family="system-ui, -apple-system, sans-serif" font-size="10" font-weight="500" fill="#94a3b8">125.8 MB/s</text><line x1="734.0" y1="196.0" x2="1336.0" y2="196.0" stroke="#e2e8f0" stroke-width="1"/><text x="1334.0" y="192.0" font-family="system-ui, -apple-system, sans-serif" font-size="10" font-weight="500" fill="#94a3b8">188.6 MB/s</text><polyline fill="none" stroke="#ea580c" stroke-width="2.5" points="734.0,348.0 742.9,348.0 751.7,348.0 760.6,348.0 769.4,348.0 778.3,348.0 787.1,348.0 796.0,343.7 804.8,201.7 813.7,201.5 822.5,201.2 831.4,200.0 840.2,200.4 849.1,201.8 857.9,203.8 866.8,201.8 875.6,202.1 884.5,202.2 893.4,203.9 902.2,203.6 911.1,202.9 919.9,202.0 928.8,201.7 937.6,200.3 946.5,201.5 955.3,200.5 964.2,201.2 973.0,199.6 981.9,201.4 990.7,201.2 999.6,201.5 1008.4,200.2 1017.3,199.7 1026.1,200.2 1035.0,200.7 1043.9,201.2 1052.7,201.4 1061.6,200.9 1070.4,199.9 1079.3,200.7 1088.1,199.5 1097.0,200.4 1105.8,200.3 1114.7,201.4 1123.5,201.1 1132.4,201.0 1141.2,200.7 1150.1,201.5 1158.9,200.9 1167.8,200.9 1176.6,201.9 1185.5,199.9 1194.4,200.1 1203.2,200.4 1212.1,200.8 1220.9,200.8 1229.8,201.0 1238.6,201.1 1247.5,202.6 1256.3,201.1 1265.2,199.7 1274.0,198.7 1282.9,199.2 1291.7,199.0 1300.6,202.2 1309.4,200.1 1318.3,199.9 1327.1,198.5 1336.0,197.7" stroke-linejoin="round" stroke-linecap="round"/><polyline fill="none" stroke="#64748b" stroke-width="2.5" points="734.0,348.0 742.9,348.0 751.7,348.0 760.6,348.0 769.4,348.0 778.3,348.0 787.1,348.0 796.0,348.0 804.8,224.9 813.7,198.7 822.5,196.6 831.4,198.0 840.2,200.0 849.1,199.0 857.9,199.1 866.8,199.0 875.6,197.5 884.5,198.2 893.4,198.5 902.2,197.5 911.1,197.9 919.9,197.8 928.8,198.2 937.6,198.6 946.5,196.0 955.3,199.2 964.2,199.1 973.0,198.7 981.9,198.8 990.7,196.3 999.6,198.7 1008.4,198.8 1017.3,198.1 1026.1,198.9 1035.0,198.6 1043.9,197.8 1052.7,198.2 1061.6,199.0 1070.4,199.2 1079.3,198.5 1088.1,198.5 1097.0,199.2 1105.8,198.9 1114.7,199.1 1123.5,200.2 1132.4,198.7 1141.2,198.0 1150.1,200.5 1158.9,200.5 1167.8,198.9 1176.6,200.0 1185.5,199.6 1194.4,199.3 1203.2,199.7 1212.1,199.7 1220.9,199.7 1229.8,198.8 1238.6,199.5 1247.5,199.1 1256.3,198.4 1265.2,198.4 1274.0,199.3 1282.9,198.6 1291.7,199.5 1300.6,198.4 1309.4,198.6 1318.3,197.9 1327.1,198.7 1336.0,199.2" stroke-linejoin="round" stroke-linecap="round"/><text x="734.0" y="366.0" font-family="monospace" font-size="12" font-weight="600" fill="#ea580c">harrow avg 161.5 MB/s peak 186.5</text><text x="734.0" y="382.0" font-family="monospace" font-size="12" font-weight="600" fill="#64748b">axum avg 163.3 MB/s peak 188.6</text><g><rect x="44.0" y="428.0" width="642.0" height="260.0" rx="8" fill="#ffffff" stroke="#e2e8f0" stroke-width="1"/><rect x="44.0" y="428.0" width="642.0" height="4" rx="8" fill="#ea580c"/></g><text x="66.0" y="460.0" font-family="monospace" font-size="18" font-weight="700" fill="#ea580c">VMstat Runnable (r)</text><line x1="64.0" y1="636.0" x2="666.0" y2="636.0" stroke="#e2e8f0" stroke-width="1"/><text x="664.0" y="632.0" font-family="system-ui, -apple-system, sans-serif" font-size="10" font-weight="500" fill="#94a3b8">0.0 threads</text><line x1="64.0" y1="585.3" x2="666.0" y2="585.3" stroke="#e2e8f0" stroke-width="1"/><text x="664.0" y="581.3" font-family="system-ui, -apple-system, sans-serif" font-size="10" font-weight="500" fill="#94a3b8">6.7 threads</text><line x1="64.0" y1="534.7" x2="666.0" y2="534.7" stroke="#e2e8f0" stroke-width="1"/><text x="664.0" y="530.7" font-family="system-ui, -apple-system, sans-serif" font-size="10" font-weight="500" fill="#94a3b8">13.3 threads</text><line x1="64.0" y1="484.0" x2="666.0" y2="484.0" stroke="#e2e8f0" stroke-width="1"/><text x="664.0" y="480.0" font-family="system-ui, -apple-system, sans-serif" font-size="10" font-weight="500" fill="#94a3b8">20.0 threads</text><polyline fill="none" stroke="#ea580c" stroke-width="2.5" points="64.0,636.0 72.9,636.0 81.7,636.0 90.6,636.0 99.4,636.0 108.3,636.0 117.1,636.0 126.0,636.0 134.8,636.0 143.7,636.0 152.5,582.8 161.4,598.0 170.2,598.0 179.1,560.0 187.9,598.0 196.8,514.4 205.6,628.4 214.5,628.4 223.4,613.2 232.2,575.2 241.1,506.8 249.9,560.0 258.8,567.6 267.6,491.6 276.5,582.8 285.3,506.8 294.2,567.6 303.0,529.6 311.9,613.2 320.7,628.4 329.6,560.0 338.4,529.6 347.3,613.2 356.1,628.4 365.0,575.2 373.9,575.2 382.7,537.2 391.6,567.6 400.4,506.8 409.3,582.8 418.1,582.8 427.0,613.2 435.8,506.8 444.7,491.6 453.5,628.4 462.4,582.8 471.2,544.8 480.1,598.0 488.9,598.0 497.8,506.8 506.6,544.8 515.5,560.0 524.4,544.8 533.2,620.8 542.1,582.8 550.9,590.4 559.8,628.4 568.6,552.4 577.5,605.6 586.3,620.8 595.2,628.4 604.0,575.2 612.9,575.2 621.7,605.6 630.6,620.8 639.4,582.8 648.3,552.4 657.1,506.8 666.0,613.2" stroke-linejoin="round" stroke-linecap="round"/><polyline fill="none" stroke="#64748b" stroke-width="2.5" points="64.0,636.0 72.9,636.0 81.7,636.0 90.6,636.0 99.4,636.0 108.3,636.0 117.1,636.0 126.0,636.0 134.8,636.0 143.7,636.0 152.5,636.0 161.4,560.0 170.2,620.8 179.1,598.0 187.9,544.8 196.8,590.4 205.6,552.4 214.5,628.4 223.4,506.8 232.2,499.2 241.1,537.2 249.9,582.8 258.8,567.6 267.6,620.8 276.5,567.6 285.3,575.2 294.2,598.0 303.0,499.2 311.9,598.0 320.7,605.6 329.6,620.8 338.4,598.0 347.3,628.4 356.1,567.6 365.0,567.6 373.9,628.4 382.7,590.4 391.6,598.0 400.4,544.8 409.3,605.6 418.1,605.6 427.0,628.4 435.8,522.0 444.7,582.8 453.5,628.4 462.4,522.0 471.2,537.2 480.1,582.8 488.9,484.0 497.8,552.4 506.6,605.6 515.5,605.6 524.4,613.2 533.2,613.2 542.1,537.2 550.9,544.8 559.8,575.2 568.6,590.4 577.5,582.8 586.3,514.4 595.2,560.0 604.0,613.2 612.9,590.4 621.7,575.2 630.6,620.8 639.4,620.8 648.3,628.4 657.1,552.4 666.0,628.4" stroke-linejoin="round" stroke-linecap="round"/><text x="64.0" y="654.0" font-family="monospace" font-size="12" font-weight="600" fill="#ea580c">harrow avg 6.9 threads peak 19.0</text><text x="64.0" y="670.0" font-family="monospace" font-size="12" font-weight="600" fill="#64748b">axum avg 6.2 threads peak 20.0</text><g><rect x="714.0" y="428.0" width="642.0" height="260.0" rx="8" fill="#ffffff" stroke="#e2e8f0" stroke-width="1"/><rect x="714.0" y="428.0" width="642.0" height="4" rx="8" fill="#ea580c"/></g><text x="736.0" y="460.0" font-family="monospace" font-size="18" font-weight="700" fill="#ea580c">VMstat Context Switches</text><line x1="734.0" y1="636.0" x2="1336.0" y2="636.0" stroke="#e2e8f0" stroke-width="1"/><text x="1334.0" y="632.0" font-family="system-ui, -apple-system, sans-serif" font-size="10" font-weight="500" fill="#94a3b8">0.0 /s</text><line x1="734.0" y1="585.3" x2="1336.0" y2="585.3" stroke="#e2e8f0" stroke-width="1"/><text x="1334.0" y="581.3" font-family="system-ui, -apple-system, sans-serif" font-size="10" font-weight="500" fill="#94a3b8">101981.3 /s</text><line x1="734.0" y1="534.7" x2="1336.0" y2="534.7" stroke="#e2e8f0" stroke-width="1"/><text x="1334.0" y="530.7" font-family="system-ui, -apple-system, sans-serif" font-size="10" font-weight="500" fill="#94a3b8">203962.7 /s</text><line x1="734.0" y1="484.0" x2="1336.0" y2="484.0" stroke="#e2e8f0" stroke-width="1"/><text x="1334.0" y="480.0" font-family="system-ui, -apple-system, sans-serif" font-size="10" font-weight="500" fill="#94a3b8">305944.0 /s</text><polyline fill="none" stroke="#ea580c" stroke-width="2.5" points="734.0,636.0 742.9,635.8 751.7,635.8 760.6,635.8 769.4,635.8 778.3,635.9 787.1,635.9 796.0,635.9 804.8,635.9 813.7,635.9 822.5,614.0 831.4,490.3 840.2,490.8 849.1,490.1 857.9,489.8 866.8,490.8 875.6,488.6 884.5,489.9 893.4,488.1 902.2,489.6 911.1,488.9 919.9,490.2 928.8,490.9 937.6,490.3 946.5,490.0 955.3,490.0 964.2,488.2 973.0,487.8 981.9,488.0 990.7,488.3 999.6,489.1 1008.4,490.4 1017.3,488.4 1026.1,487.8 1035.0,489.1 1043.9,489.0 1052.7,489.7 1061.6,489.3 1070.4,488.2 1079.3,489.9 1088.1,489.9 1097.0,488.7 1105.8,489.3 1114.7,489.0 1123.5,486.8 1132.4,490.0 1141.2,488.8 1150.1,488.5 1158.9,486.7 1167.8,489.8 1176.6,489.9 1185.5,491.0 1194.4,488.1 1203.2,489.4 1212.1,486.7 1220.9,487.4 1229.8,489.0 1238.6,485.6 1247.5,487.4 1256.3,485.0 1265.2,487.0 1274.0,487.0 1282.9,487.0 1291.7,485.3 1300.6,484.0 1309.4,486.5 1318.3,487.5 1327.1,488.4 1336.0,486.8" stroke-linejoin="round" stroke-linecap="round"/><polyline fill="none" stroke="#64748b" stroke-width="2.5" points="734.0,636.0 742.9,635.8 751.7,635.8 760.6,635.8 769.4,635.8 778.3,635.9 787.1,635.9 796.0,635.9 804.8,635.9 813.7,635.9 822.5,635.8 831.4,498.2 840.2,487.1 849.1,487.3 857.9,488.7 866.8,488.8 875.6,488.6 884.5,488.9 893.4,488.0 902.2,489.1 911.1,488.3 919.9,488.7 928.8,489.4 937.6,488.9 946.5,489.0 955.3,488.9 964.2,488.9 973.0,489.1 981.9,488.7 990.7,490.0 999.6,490.2 1008.4,490.2 1017.3,489.8 1026.1,491.2 1035.0,490.7 1043.9,490.3 1052.7,490.4 1061.6,491.0 1070.4,490.2 1079.3,491.3 1088.1,490.6 1097.0,490.5 1105.8,490.6 1114.7,491.4 1123.5,491.3 1132.4,490.7 1141.2,490.8 1150.1,491.5 1158.9,490.1 1167.8,490.9 1176.6,491.1 1185.5,492.1 1194.4,491.3 1203.2,491.6 1212.1,491.8 1220.9,492.3 1229.8,492.3 1238.6,492.0 1247.5,490.9 1256.3,491.2 1265.2,490.4 1274.0,490.9 1282.9,490.5 1291.7,489.8 1300.6,491.2 1309.4,490.8 1318.3,492.1 1327.1,491.5 1336.0,491.6" stroke-linejoin="round" stroke-linecap="round"/><text x="734.0" y="654.0" font-family="monospace" font-size="12" font-weight="600" fill="#ea580c">harrow avg 250076.5 /s peak 305944.0</text><text x="734.0" y="670.0" font-family="monospace" font-size="12" font-weight="600" fill="#64748b">axum avg 246375.5 /s peak 299636.0</text></svg>