<svg xmlns="http://www.w3.org/2000/svg" width="1400" height="860" viewBox="0 0 1400 860" fill="none">
<rect x="0" y="0" width="1400" height="860" fill="#fafafa"/>
<text x="44.0" y="52.0" font-family="monospace" font-size="18" font-weight="700" fill="#1e293b">server telemetry :: json-1kb-c128</text><text x="44.0" y="82.0" font-family="system-ui, -apple-system, sans-serif" font-size="14" font-weight="500" fill="#64748b">Harrow overlays Axum for server-side sar and vmstat signals</text><g><rect x="44.0" y="104.0" width="92" height="28" rx="4" fill="#fff7ed" stroke="#e2e8f0" stroke-width="1"/><rect x="56.0" y="112.0" width="12" height="12" rx="4" fill="#fff7ed" stroke="#ea580c" stroke-width="1.5"/><text x="74.0" y="122.0" font-family="monospace" font-size="12" font-weight="700" fill="#ea580c">harrow</text></g><g><rect x="156.0" y="104.0" width="92" height="28" rx="4" fill="#f8fafc" stroke="#e2e8f0" stroke-width="1"/><rect x="168.0" y="112.0" width="12" height="12" rx="4" fill="#f8fafc" stroke="#64748b" stroke-width="1.5"/><text x="186.0" y="122.0" font-family="monospace" font-size="12" font-weight="700" fill="#64748b">axum</text></g><g><rect x="44.0" y="140.0" width="642.0" height="260.0" rx="8" fill="#ffffff" stroke="#e2e8f0" stroke-width="1"/><rect x="44.0" y="140.0" width="642.0" height="4" rx="8" fill="#ea580c"/></g><text x="66.0" y="172.0" font-family="monospace" font-size="18" font-weight="700" fill="#ea580c">Server CPU Busy %</text><line x1="64.0" y1="366.0" x2="666.0" y2="366.0" stroke="#e2e8f0" stroke-width="1"/><text x="664.0" y="362.0" font-family="system-ui, -apple-system, sans-serif" font-size="10" font-weight="500" fill="#94a3b8">0.0 %</text><line x1="64.0" y1="309.3" x2="666.0" y2="309.3" stroke="#e2e8f0" stroke-width="1"/><text x="664.0" y="305.3" font-family="system-ui, -apple-system, sans-serif" font-size="10" font-weight="500" fill="#94a3b8">9.9 %</text><line x1="64.0" y1="252.7" x2="666.0" y2="252.7" stroke="#e2e8f0" stroke-width="1"/><text x="664.0" y="248.7" font-family="system-ui, -apple-system, sans-serif" font-size="10" font-weight="500" fill="#94a3b8">19.8 %</text><line x1="64.0" y1="196.0" x2="666.0" y2="196.0" stroke="#e2e8f0" stroke-width="1"/><text x="664.0" y="192.0" font-family="system-ui, -apple-system, sans-serif" font-size="10" font-weight="500" fill="#94a3b8">29.8 %</text><polyline fill="none" stroke="#ea580c" stroke-width="2.5" points="64.0,365.5 72.9,365.3 81.7,365.7 90.6,366.0 99.4,366.0 108.3,366.0 117.1,366.0 126.0,366.0 134.8,364.3 143.7,292.6 152.5,204.2 161.4,203.6 170.2,203.0 179.1,207.6 187.9,199.2 196.8,216.9 205.6,198.8 214.5,211.5 223.4,209.6 232.2,209.0 241.1,208.3 249.9,211.5 258.8,209.9 267.6,205.9 276.5,196.0 285.3,204.7 294.2,203.0 303.0,198.8 311.9,204.8 320.7,201.3 329.6,209.9 338.4,202.6 347.3,199.7 356.1,207.8 365.0,212.3 373.9,214.6 382.7,208.0 391.6,210.6 400.4,210.1 409.3,206.2 418.1,196.3 427.0,202.3 435.8,209.0 444.7,202.2 453.5,215.9 462.4,203.1 471.2,203.9 480.1,211.7 488.9,204.7 497.8,203.9 506.6,206.2 515.5,209.8 524.4,206.6 533.2,223.8 542.1,204.8 550.9,207.1 559.8,216.4 568.6,198.2 577.5,202.6 586.3,207.2 595.2,204.5 604.0,203.0 612.9,215.1 621.7,207.6 630.6,203.1 639.4,211.1 648.3,207.6 657.1,207.1 666.0,206.7" stroke-linejoin="round" stroke-linecap="round"/><polyline fill="none" stroke="#64748b" stroke-width="2.5" points="64.0,365.7 72.9,365.5 81.7,365.7 90.6,365.9 99.4,365.9 108.3,365.9 117.1,365.9 126.0,365.8 134.8,364.2 143.7,271.3 152.5,230.9 161.4,216.6 170.2,235.6 179.1,229.7 187.9,241.7 196.8,225.1 205.6,233.2 214.5,228.8 223.4,230.8 232.2,229.5 241.1,229.5 249.9,224.4 258.8,234.8 267.6,232.1 276.5,244.6 285.3,228.5 294.2,222.7 303.0,228.8 311.9,231.5 320.7,230.0 329.6,227.6 338.4,250.2 347.3,220.7 356.1,230.2 365.0,238.8 373.9,233.5 382.7,237.6 391.6,233.9 400.4,237.3 409.3,243.7 418.1,230.5 427.0,232.5 435.8,227.2 444.7,238.2 453.5,233.0 462.4,237.5 471.2,232.5 480.1,238.0 488.9,224.2 497.8,241.8 506.6,238.2 515.5,229.7 524.4,236.9 533.2,227.1 542.1,232.9 550.9,243.3 559.8,228.5 568.6,235.1 577.5,244.8 586.3,230.9 595.2,224.6 604.0,237.7 612.9,236.8 621.7,239.7 630.6,223.8 639.4,231.1 648.3,224.2 657.1,237.5 666.0,232.6" stroke-linejoin="round" stroke-linecap="round"/><text x="64.0" y="382.0" font-family="monospace" font-size="12" font-weight="600" fill="#ea580c">harrow avg 24.1 % peak 29.8</text><text x="324.0" y="382.0" font-family="monospace" font-size="12" font-weight="600" fill="#64748b">axum avg 20.2 % peak 26.2</text><g><rect x="714.0" y="140.0" width="642.0" height="260.0" rx="8" fill="#ffffff" stroke="#e2e8f0" stroke-width="1"/><rect x="714.0" y="140.0" width="642.0" height="4" rx="8" fill="#ea580c"/></g><text x="736.0" y="172.0" font-family="monospace" font-size="18" font-weight="700" fill="#ea580c">Server Net TX</text><line x1="734.0" y1="366.0" x2="1336.0" y2="366.0" stroke="#e2e8f0" stroke-width="1"/><text x="1334.0" y="362.0" font-family="system-ui, -apple-system, sans-serif" font-size="10" font-weight="500" fill="#94a3b8">0.0 MB/s</text><line x1="734.0" y1="309.3" x2="1336.0" y2="309.3" stroke="#e2e8f0" stroke-width="1"/><text x="1334.0" y="305.3" font-family="system-ui, -apple-system, sans-serif" font-size="10" font-weight="500" fill="#94a3b8">410.1 MB/s</text><line x1="734.0" y1="252.7" x2="1336.0" y2="252.7" stroke="#e2e8f0" stroke-width="1"/><text x="1334.0" y="248.7" font-family="system-ui, -apple-system, sans-serif" font-size="10" font-weight="500" fill="#94a3b8">820.2 MB/s</text><line x1="734.0" y1="196.0" x2="1336.0" y2="196.0" stroke="#e2e8f0" stroke-width="1"/><text x="1334.0" y="192.0" font-family="system-ui, -apple-system, sans-serif" font-size="10" font-weight="500" fill="#94a3b8">1230.3 MB/s</text><polyline fill="none" stroke="#ea580c" stroke-width="2.5" points="734.0,366.0 742.9,366.0 751.7,366.0 760.6,366.0 769.4,366.0 778.3,366.0 787.1,366.0 796.0,366.0 804.8,286.5 813.7,267.0 822.5,267.0 831.4,266.7 840.2,267.6 849.1,267.5 857.9,267.1 866.8,266.5 875.6,266.4 884.5,266.5 893.4,267.0 902.2,267.9 911.1,267.6 919.9,266.6 928.8,267.7 937.6,266.6 946.5,266.0 955.3,265.9 964.2,267.0 973.0,265.5 981.9,267.9 990.7,266.9 999.6,266.5 1008.4,266.7 1017.3,266.6 1026.1,267.2 1035.0,267.2 1043.9,266.5 1052.7,266.4 1061.6,266.6 1070.4,266.3 1079.3,266.9 1088.1,265.7 1097.0,266.7 1105.8,265.8 1114.7,266.9 1123.5,266.2 1132.4,266.5 1141.2,265.6 1150.1,267.1 1158.9,266.3 1167.8,266.2 1176.6,266.6 1185.5,266.8 1194.4,266.6 1203.2,267.3 1212.1,267.1 1220.9,266.3 1229.8,267.1 1238.6,266.1 1247.5,266.5 1256.3,266.3 1265.2,266.1 1274.0,267.4 1282.9,267.3 1291.7,266.7 1300.6,267.2 1309.4,266.5 1318.3,266.6 1327.1,266.9 1336.0,266.4" stroke-linejoin="round" stroke-linecap="round"/><polyline fill="none" stroke="#64748b" stroke-width="2.5" points="734.0,366.0 742.9,366.0 751.7,366.0 760.6,366.0 769.4,366.0 778.3,366.0 787.1,366.0 796.0,365.7 804.8,200.5 813.7,197.0 822.5,196.0 831.4,196.6 840.2,197.2 849.1,196.7 857.9,196.7 866.8,197.2 875.6,198.4 884.5,198.0 893.4,197.7 902.2,197.3 911.1,197.0 919.9,198.0 928.8,197.1 937.6,197.7 946.5,197.8 955.3,198.1 964.2,196.5 973.0,197.6 981.9,197.5 990.7,197.4 999.6,197.6 1008.4,196.0 1017.3,196.9 1026.1,200.1 1035.0,198.2 1043.9,196.9 1052.7,197.9 1061.6,197.8 1070.4,197.1 1079.3,196.7 1088.1,196.5 1097.0,197.2 1105.8,196.2 1114.7,196.9 1123.5,198.5 1132.4,197.9 1141.2,196.7 1150.1,197.7 1158.9,197.1 1167.8,197.3 1176.6,196.9 1185.5,197.9 1194.4,198.4 1203.2,197.9 1212.1,198.4 1220.9,197.9 1229.8,197.7 1238.6,198.6 1247.5,199.8 1256.3,199.9 1265.2,199.3 1274.0,199.3 1282.9,198.3 1291.7,198.5 1300.6,198.8 1309.4,197.8 1318.3,197.5 1327.1,198.5 1336.0,199.9" stroke-linejoin="round" stroke-linecap="round"/><text x="734.0" y="382.0" font-family="monospace" font-size="12" font-weight="600" fill="#ea580c">harrow avg 633.2 MB/s peak 727.6</text><text x="994.0" y="382.0" font-family="monospace" font-size="12" font-weight="600" fill="#64748b">axum avg 1076.5 MB/s peak 1230.3</text><g><rect x="44.0" y="428.0" width="642.0" height="260.0" rx="8" fill="#ffffff" stroke="#e2e8f0" stroke-width="1"/><rect x="44.0" y="428.0" width="642.0" height="4" rx="8" fill="#ea580c"/></g><text x="66.0" y="460.0" font-family="monospace" font-size="18" font-weight="700" fill="#ea580c">VMstat Runnable (r)</text><line x1="64.0" y1="654.0" x2="666.0" y2="654.0" stroke="#e2e8f0" stroke-width="1"/><text x="664.0" y="650.0" font-family="system-ui, -apple-system, sans-serif" font-size="10" font-weight="500" fill="#94a3b8">0.0 threads</text><line x1="64.0" y1="597.3" x2="666.0" y2="597.3" stroke="#e2e8f0" stroke-width="1"/><text x="664.0" y="593.3" font-family="system-ui, -apple-system, sans-serif" font-size="10" font-weight="500" fill="#94a3b8">8.3 threads</text><line x1="64.0" y1="540.7" x2="666.0" y2="540.7" stroke="#e2e8f0" stroke-width="1"/><text x="664.0" y="536.7" font-family="system-ui, -apple-system, sans-serif" font-size="10" font-weight="500" fill="#94a3b8">16.7 threads</text><line x1="64.0" y1="484.0" x2="666.0" y2="484.0" stroke="#e2e8f0" stroke-width="1"/><text x="664.0" y="480.0" font-family="system-ui, -apple-system, sans-serif" font-size="10" font-weight="500" fill="#94a3b8">25.0 threads</text><polyline fill="none" stroke="#ea580c" stroke-width="2.5" points="64.0,654.0 72.9,654.0 81.7,654.0 90.6,654.0 99.4,654.0 108.3,654.0 117.1,654.0 126.0,654.0 134.8,654.0 143.7,654.0 152.5,654.0 161.4,633.6 170.2,599.6 179.1,524.8 187.9,545.2 196.8,497.6 205.6,552.0 214.5,558.8 223.4,531.6 232.2,552.0 241.1,524.8 249.9,538.4 258.8,579.2 267.6,545.2 276.5,524.8 285.3,558.8 294.2,552.0 303.0,565.6 311.9,518.0 320.7,626.8 329.6,531.6 338.4,484.0 347.3,586.0 356.1,606.4 365.0,572.4 373.9,579.2 382.7,606.4 391.6,579.2 400.4,586.0 409.3,626.8 418.1,511.2 427.0,552.0 435.8,572.4 444.7,592.8 453.5,579.2 462.4,552.0 471.2,511.2 480.1,552.0 488.9,613.2 497.8,586.0 506.6,558.8 515.5,633.6 524.4,545.2 533.2,552.0 542.1,531.6 550.9,640.4 559.8,518.0 568.6,552.0 577.5,497.6 586.3,592.8 595.2,613.2 604.0,552.0 612.9,586.0 621.7,545.2 630.6,606.4 639.4,565.6 648.3,647.2 657.1,552.0 666.0,524.8" stroke-linejoin="round" stroke-linecap="round"/><polyline fill="none" stroke="#64748b" stroke-width="2.5" points="64.0,654.0 72.9,654.0 81.7,654.0 90.6,654.0 99.4,654.0 108.3,654.0 117.1,654.0 126.0,654.0 134.8,654.0 143.7,654.0 152.5,572.4 161.4,586.0 170.2,640.4 179.1,579.2 187.9,545.2 196.8,565.6 205.6,531.6 214.5,592.8 223.4,586.0 232.2,599.6 241.1,640.4 249.9,518.0 258.8,647.2 267.6,558.8 276.5,579.2 285.3,640.4 294.2,640.4 303.0,586.0 311.9,620.0 320.7,647.2 329.6,647.2 338.4,586.0 347.3,599.6 356.1,633.6 365.0,633.6 373.9,620.0 382.7,647.2 391.6,647.2 400.4,579.2 409.3,647.2 418.1,572.4 427.0,613.2 435.8,640.4 444.7,599.6 453.5,565.6 462.4,572.4 471.2,586.0 480.1,640.4 488.9,592.8 497.8,586.0 506.6,531.6 515.5,558.8 524.4,558.8 533.2,606.4 542.1,592.8 550.9,592.8 559.8,620.0 568.6,647.2 577.5,633.6 586.3,565.6 595.2,633.6 604.0,586.0 612.9,599.6 621.7,565.6 630.6,620.0 639.4,558.8 648.3,647.2 657.1,606.4 666.0,599.6" stroke-linejoin="round" stroke-linecap="round"/><text x="64.0" y="670.0" font-family="monospace" font-size="12" font-weight="600" fill="#ea580c">harrow avg 11.1 threads peak 25.0</text><text x="324.0" y="670.0" font-family="monospace" font-size="12" font-weight="600" fill="#64748b">axum avg 6.8 threads peak 20.0</text><g><rect x="714.0" y="428.0" width="642.0" height="260.0" rx="8" fill="#ffffff" stroke="#e2e8f0" stroke-width="1"/><rect x="714.0" y="428.0" width="642.0" height="4" rx="8" fill="#ea580c"/></g><text x="736.0" y="460.0" font-family="monospace" font-size="18" font-weight="700" fill="#ea580c">VMstat Context Switches</text><line x1="734.0" y1="654.0" x2="1336.0" y2="654.0" stroke="#e2e8f0" stroke-width="1"/><text x="1334.0" y="650.0" font-family="system-ui, -apple-system, sans-serif" font-size="10" font-weight="500" fill="#94a3b8">0.0 /s</text><line x1="734.0" y1="597.3" x2="1336.0" y2="597.3" stroke="#e2e8f0" stroke-width="1"/><text x="1334.0" y="593.3" font-family="system-ui, -apple-system, sans-serif" font-size="10" font-weight="500" fill="#94a3b8">574377.7 /s</text><line x1="734.0" y1="540.7" x2="1336.0" y2="540.7" stroke="#e2e8f0" stroke-width="1"/><text x="1334.0" y="536.7" font-family="system-ui, -apple-system, sans-serif" font-size="10" font-weight="500" fill="#94a3b8">1148755.3 /s</text><line x1="734.0" y1="484.0" x2="1336.0" y2="484.0" stroke="#e2e8f0" stroke-width="1"/><text x="1334.0" y="480.0" font-family="system-ui, -apple-system, sans-serif" font-size="10" font-weight="500" fill="#94a3b8">1723133.0 /s</text><polyline fill="none" stroke="#ea580c" stroke-width="2.5" points="734.0,654.0 742.9,654.0 751.7,653.9 760.6,654.0 769.4,654.0 778.3,654.0 787.1,654.0 796.0,654.0 804.8,654.0 813.7,654.0 822.5,653.9 831.4,530.3 840.2,489.1 849.1,488.8 857.9,490.3 866.8,486.5 875.6,487.5 884.5,489.4 893.4,489.2 902.2,491.8 911.1,490.5 919.9,487.9 928.8,484.0 937.6,485.0 946.5,490.1 955.3,485.3 964.2,488.6 973.0,490.8 981.9,493.6 990.7,487.8 999.6,492.4 1008.4,487.0 1017.3,489.9 1026.1,489.5 1035.0,487.9 1043.9,489.4 1052.7,488.4 1061.6,489.0 1070.4,490.1 1079.3,493.0 1088.1,488.8 1097.0,490.3 1105.8,489.0 1114.7,491.9 1123.5,491.8 1132.4,492.7 1141.2,489.2 1150.1,490.2 1158.9,489.8 1167.8,493.1 1176.6,488.6 1185.5,489.2 1194.4,492.3 1203.2,489.5 1212.1,489.4 1220.9,490.8 1229.8,487.9 1238.6,489.0 1247.5,490.0 1256.3,486.2 1265.2,490.2 1274.0,491.4 1282.9,489.9 1291.7,491.3 1300.6,487.0 1309.4,486.6 1318.3,488.8 1327.1,489.1 1336.0,490.1" stroke-linejoin="round" stroke-linecap="round"/><polyline fill="none" stroke="#64748b" stroke-width="2.5" points="734.0,654.0 742.9,654.0 751.7,654.0 760.6,654.0 769.4,654.0 778.3,654.0 787.1,654.0 796.0,654.0 804.8,654.0 813.7,654.0 822.5,650.8 831.4,625.1 840.2,625.2 849.1,624.7 857.9,625.3 866.8,625.3 875.6,625.1 884.5,625.1 893.4,625.2 902.2,625.3 911.1,625.7 919.9,625.4 928.8,625.8 937.6,625.7 946.5,625.9 955.3,625.6 964.2,625.7 973.0,625.6 981.9,625.7 990.7,625.6 999.6,625.8 1008.4,625.9 1017.3,625.7 1026.1,625.7 1035.0,625.2 1043.9,625.8 1052.7,626.1 1061.6,625.9 1070.4,625.8 1079.3,625.9 1088.1,625.9 1097.0,625.5 1105.8,625.5 1114.7,625.5 1123.5,626.0 1132.4,626.0 1141.2,626.0 1150.1,625.8 1158.9,626.0 1167.8,625.6 1176.6,625.5 1185.5,625.7 1194.4,625.6 1203.2,625.6 1212.1,625.7 1220.9,625.6 1229.8,625.7 1238.6,626.0 1247.5,625.9 1256.3,626.0 1265.2,625.9 1274.0,625.8 1282.9,626.2 1291.7,626.1 1300.6,626.2 1309.4,626.2 1318.3,626.3 1327.1,626.2 1336.0,626.1" stroke-linejoin="round" stroke-linecap="round"/><text x="734.0" y="670.0" font-family="monospace" font-size="12" font-weight="600" fill="#ea580c">harrow avg 1396291.8 /s peak 1723133.0</text><text x="994.0" y="670.0" font-family="monospace" font-size="12" font-weight="600" fill="#64748b">axum avg 241568.0 /s peak 296926.0</text></svg>