<svg xmlns="http://www.w3.org/2000/svg" width="1400" height="860" viewBox="0 0 1400 860" fill="none">
<rect x="0" y="0" width="1400" height="860" fill="#fafafa"/>
<text x="44.0" y="52.0" font-family="monospace" font-size="18" font-weight="700" fill="#1e293b">server telemetry :: text-c128</text><text x="44.0" y="82.0" font-family="system-ui, -apple-system, sans-serif" font-size="14" font-weight="500" fill="#64748b">Harrow overlays Axum for server-side sar and vmstat signals</text><g><rect x="44.0" y="104.0" width="92" height="28" rx="4" fill="#fff7ed" stroke="#e2e8f0" stroke-width="1"/><rect x="56.0" y="112.0" width="12" height="12" rx="4" fill="#fff7ed" stroke="#ea580c" stroke-width="1.5"/><text x="74.0" y="122.0" font-family="monospace" font-size="12" font-weight="700" fill="#ea580c">harrow</text></g><g><rect x="156.0" y="104.0" width="92" height="28" rx="4" fill="#f8fafc" stroke="#e2e8f0" stroke-width="1"/><rect x="168.0" y="112.0" width="12" height="12" rx="4" fill="#f8fafc" stroke="#64748b" stroke-width="1.5"/><text x="186.0" y="122.0" font-family="monospace" font-size="12" font-weight="700" fill="#64748b">axum</text></g><g><rect x="44.0" y="140.0" width="642.0" height="260.0" rx="8" fill="#ffffff" stroke="#e2e8f0" stroke-width="1"/><rect x="44.0" y="140.0" width="642.0" height="4" rx="8" fill="#ea580c"/></g><text x="66.0" y="172.0" font-family="monospace" font-size="18" font-weight="700" fill="#ea580c">Server CPU Busy %</text><line x1="64.0" y1="366.0" x2="666.0" y2="366.0" stroke="#e2e8f0" stroke-width="1"/><text x="664.0" y="362.0" font-family="system-ui, -apple-system, sans-serif" font-size="10" font-weight="500" fill="#94a3b8">0.0 %</text><line x1="64.0" y1="309.3" x2="666.0" y2="309.3" stroke="#e2e8f0" stroke-width="1"/><text x="664.0" y="305.3" font-family="system-ui, -apple-system, sans-serif" font-size="10" font-weight="500" fill="#94a3b8">8.3 %</text><line x1="64.0" y1="252.7" x2="666.0" y2="252.7" stroke="#e2e8f0" stroke-width="1"/><text x="664.0" y="248.7" font-family="system-ui, -apple-system, sans-serif" font-size="10" font-weight="500" fill="#94a3b8">16.7 %</text><line x1="64.0" y1="196.0" x2="666.0" y2="196.0" stroke="#e2e8f0" stroke-width="1"/><text x="664.0" y="192.0" font-family="system-ui, -apple-system, sans-serif" font-size="10" font-weight="500" fill="#94a3b8">25.0 %</text><polyline fill="none" stroke="#ea580c" stroke-width="2.5" points="64.0,365.3 72.9,365.7 81.7,365.7 90.6,366.0 99.4,366.0 108.3,366.0 117.1,365.9 126.0,365.9 134.8,362.3 143.7,256.7 152.5,204.8 161.4,201.8 170.2,215.1 179.1,222.9 187.9,205.8 196.8,203.1 205.6,209.9 214.5,211.0 223.4,199.3 232.2,216.2 241.1,207.1 249.9,217.7 258.8,209.0 267.6,208.3 276.5,214.1 285.3,213.2 294.2,196.0 303.0,218.1 311.9,204.2 320.7,205.5 329.6,217.3 338.4,213.7 347.3,208.6 356.1,203.7 365.0,212.2 373.9,197.7 382.7,206.7 391.6,204.6 400.4,217.0 409.3,203.7 418.1,209.0 427.0,211.0 435.8,204.1 444.7,206.7 453.5,215.6 462.4,204.6 471.2,207.3 480.1,208.4 488.9,215.1 497.8,209.0 506.6,208.6 515.5,212.6 524.4,210.9 533.2,208.1 542.1,204.7 550.9,216.8 559.8,204.4 568.6,203.5 577.5,212.5 586.3,213.2 595.2,208.9 604.0,208.4 612.9,218.0 621.7,214.1 630.6,208.6 639.4,211.5 648.3,204.8 657.1,204.1 666.0,211.6" stroke-linejoin="round" stroke-linecap="round"/><polyline fill="none" stroke="#64748b" stroke-width="2.5" points="64.0,365.5 72.9,365.7 81.7,365.9 90.6,365.9 99.4,365.9 108.3,365.9 117.1,365.9 126.0,365.7 134.8,363.7 143.7,283.6 152.5,222.7 161.4,239.0 170.2,227.6 179.1,226.9 187.9,232.2 196.8,230.7 205.6,226.9 214.5,228.4 223.4,230.2 232.2,241.7 241.1,226.3 249.9,231.6 258.8,236.3 267.6,229.3 276.5,225.0 285.3,228.5 294.2,226.4 303.0,227.4 311.9,230.1 320.7,239.2 329.6,233.9 338.4,232.2 347.3,234.5 356.1,235.6 365.0,225.1 373.9,225.7 382.7,224.2 391.6,240.6 400.4,225.0 409.3,241.5 418.1,245.3 427.0,228.4 435.8,228.9 444.7,235.6 453.5,229.3 462.4,226.6 471.2,223.0 480.1,231.5 488.9,226.3 497.8,228.8 506.6,230.8 515.5,225.2 524.4,229.5 533.2,219.5 542.1,238.5 550.9,226.3 559.8,239.5 568.6,226.9 577.5,236.7 586.3,229.3 595.2,229.9 604.0,242.6 612.9,225.9 621.7,236.5 630.6,223.7 639.4,234.1 648.3,219.5 657.1,231.1 666.0,224.2" stroke-linejoin="round" stroke-linecap="round"/><text x="64.0" y="382.0" font-family="monospace" font-size="12" font-weight="600" fill="#ea580c">harrow avg 20.0 % peak 25.0</text><text x="324.0" y="382.0" font-family="monospace" font-size="12" font-weight="600" fill="#64748b">axum avg 17.3 % peak 21.6</text><g><rect x="714.0" y="140.0" width="642.0" height="260.0" rx="8" fill="#ffffff" stroke="#e2e8f0" stroke-width="1"/><rect x="714.0" y="140.0" width="642.0" height="4" rx="8" fill="#ea580c"/></g><text x="736.0" y="172.0" font-family="monospace" font-size="18" font-weight="700" fill="#ea580c">Server Net TX</text><line x1="734.0" y1="366.0" x2="1336.0" y2="366.0" stroke="#e2e8f0" stroke-width="1"/><text x="1334.0" y="362.0" font-family="system-ui, -apple-system, sans-serif" font-size="10" font-weight="500" fill="#94a3b8">0.0 MB/s</text><line x1="734.0" y1="309.3" x2="1336.0" y2="309.3" stroke="#e2e8f0" stroke-width="1"/><text x="1334.0" y="305.3" font-family="system-ui, -apple-system, sans-serif" font-size="10" font-weight="500" fill="#94a3b8">60.4 MB/s</text><line x1="734.0" y1="252.7" x2="1336.0" y2="252.7" stroke="#e2e8f0" stroke-width="1"/><text x="1334.0" y="248.7" font-family="system-ui, -apple-system, sans-serif" font-size="10" font-weight="500" fill="#94a3b8">120.9 MB/s</text><line x1="734.0" y1="196.0" x2="1336.0" y2="196.0" stroke="#e2e8f0" stroke-width="1"/><text x="1334.0" y="192.0" font-family="system-ui, -apple-system, sans-serif" font-size="10" font-weight="500" fill="#94a3b8">181.3 MB/s</text><polyline fill="none" stroke="#ea580c" stroke-width="2.5" points="734.0,366.0 742.9,366.0 751.7,366.0 760.6,366.0 769.4,366.0 778.3,366.0 787.1,366.0 796.0,366.0 804.8,285.3 813.7,282.8 822.5,282.8 831.4,283.1 840.2,282.8 849.1,283.7 857.9,283.1 866.8,283.4 875.6,283.8 884.5,283.2 893.4,282.9 902.2,283.0 911.1,283.2 919.9,282.9 928.8,283.6 937.6,283.7 946.5,283.8 955.3,283.0 964.2,283.2 973.0,282.8 981.9,282.8 990.7,283.5 999.6,283.3 1008.4,283.6 1017.3,284.0 1026.1,284.1 1035.0,283.6 1043.9,283.2 1052.7,282.7 1061.6,283.1 1070.4,283.2 1079.3,283.8 1088.1,283.3 1097.0,283.1 1105.8,284.1 1114.7,283.5 1123.5,283.4 1132.4,283.4 1141.2,283.4 1150.1,283.9 1158.9,284.0 1167.8,284.0 1176.6,284.2 1185.5,284.0 1194.4,283.5 1203.2,283.8 1212.1,283.6 1220.9,283.9 1229.8,283.7 1238.6,283.6 1247.5,283.2 1256.3,284.0 1265.2,284.1 1274.0,283.1 1282.9,282.7 1291.7,283.7 1300.6,282.8 1309.4,283.0 1318.3,283.0 1327.1,283.2 1336.0,283.3" stroke-linejoin="round" stroke-linecap="round"/><polyline fill="none" stroke="#64748b" stroke-width="2.5" points="734.0,366.0 742.9,366.0 751.7,366.0 760.6,366.0 769.4,366.0 778.3,366.0 787.1,366.0 796.0,366.0 804.8,215.4 813.7,198.7 822.5,198.5 831.4,199.7 840.2,199.7 849.1,200.5 857.9,200.2 866.8,199.4 875.6,197.8 884.5,198.1 893.4,198.1 902.2,196.7 911.1,198.6 919.9,199.5 928.8,199.5 937.6,198.7 946.5,198.0 955.3,198.8 964.2,201.3 973.0,198.5 981.9,197.8 990.7,198.9 999.6,196.4 1008.4,198.0 1017.3,197.8 1026.1,198.6 1035.0,198.4 1043.9,197.4 1052.7,197.8 1061.6,197.9 1070.4,199.7 1079.3,197.9 1088.1,197.2 1097.0,197.5 1105.8,199.8 1114.7,199.5 1123.5,199.7 1132.4,199.3 1141.2,199.1 1150.1,197.9 1158.9,199.0 1167.8,199.1 1176.6,197.7 1185.5,197.5 1194.4,197.5 1203.2,199.0 1212.1,198.8 1220.9,197.5 1229.8,198.4 1238.6,198.4 1247.5,198.3 1256.3,197.1 1265.2,197.4 1274.0,197.9 1282.9,197.9 1291.7,196.0 1300.6,198.0 1309.4,197.7 1318.3,197.6 1327.1,198.0 1336.0,198.0" stroke-linejoin="round" stroke-linecap="round"/><text x="734.0" y="382.0" font-family="monospace" font-size="12" font-weight="600" fill="#ea580c">harrow avg 77.8 MB/s peak 88.9</text><text x="994.0" y="382.0" font-family="monospace" font-size="12" font-weight="600" fill="#64748b">axum avg 157.8 MB/s peak 181.3</text><g><rect x="44.0" y="428.0" width="642.0" height="260.0" rx="8" fill="#ffffff" stroke="#e2e8f0" stroke-width="1"/><rect x="44.0" y="428.0" width="642.0" height="4" rx="8" fill="#ea580c"/></g><text x="66.0" y="460.0" font-family="monospace" font-size="18" font-weight="700" fill="#ea580c">VMstat Runnable (r)</text><line x1="64.0" y1="654.0" x2="666.0" y2="654.0" stroke="#e2e8f0" stroke-width="1"/><text x="664.0" y="650.0" font-family="system-ui, -apple-system, sans-serif" font-size="10" font-weight="500" fill="#94a3b8">0.0 threads</text><line x1="64.0" y1="597.3" x2="666.0" y2="597.3" stroke="#e2e8f0" stroke-width="1"/><text x="664.0" y="593.3" font-family="system-ui, -apple-system, sans-serif" font-size="10" font-weight="500" fill="#94a3b8">8.0 threads</text><line x1="64.0" y1="540.7" x2="666.0" y2="540.7" stroke="#e2e8f0" stroke-width="1"/><text x="664.0" y="536.7" font-family="system-ui, -apple-system, sans-serif" font-size="10" font-weight="500" fill="#94a3b8">16.0 threads</text><line x1="64.0" y1="484.0" x2="666.0" y2="484.0" stroke="#e2e8f0" stroke-width="1"/><text x="664.0" y="480.0" font-family="system-ui, -apple-system, sans-serif" font-size="10" font-weight="500" fill="#94a3b8">24.0 threads</text><polyline fill="none" stroke="#ea580c" stroke-width="2.5" points="64.0,654.0 72.9,654.0 81.7,654.0 90.6,654.0 99.4,654.0 108.3,654.0 117.1,654.0 126.0,654.0 134.8,654.0 143.7,654.0 152.5,583.2 161.4,569.0 170.2,583.2 179.1,519.4 187.9,519.4 196.8,540.7 205.6,590.2 214.5,597.3 223.4,646.9 232.2,625.7 241.1,569.0 249.9,561.9 258.8,625.7 267.6,611.5 276.5,569.0 285.3,590.2 294.2,618.6 303.0,547.8 311.9,618.6 320.7,604.4 329.6,569.0 338.4,604.4 347.3,583.2 356.1,554.8 365.0,561.9 373.9,625.7 382.7,561.9 391.6,576.1 400.4,576.1 409.3,639.8 418.1,526.5 427.0,554.8 435.8,583.2 444.7,561.9 453.5,533.6 462.4,491.1 471.2,576.1 480.1,604.4 488.9,576.1 497.8,526.5 506.6,583.2 515.5,569.0 524.4,583.2 533.2,547.8 542.1,597.3 550.9,583.2 559.8,625.7 568.6,540.7 577.5,590.2 586.3,569.0 595.2,547.8 604.0,484.0 612.9,639.8 621.7,611.5 630.6,576.1 639.4,583.2 648.3,597.3 657.1,618.6 666.0,512.3" stroke-linejoin="round" stroke-linecap="round"/><polyline fill="none" stroke="#64748b" stroke-width="2.5" points="64.0,654.0 72.9,654.0 81.7,654.0 90.6,654.0 99.4,654.0 108.3,654.0 117.1,654.0 126.0,654.0 134.8,654.0 143.7,654.0 152.5,654.0 161.4,576.1 170.2,604.4 179.1,597.3 187.9,604.4 196.8,611.5 205.6,639.8 214.5,632.8 223.4,646.9 232.2,604.4 241.1,547.8 249.9,590.2 258.8,639.8 267.6,597.3 276.5,639.8 285.3,604.4 294.2,590.2 303.0,547.8 311.9,547.8 320.7,583.2 329.6,639.8 338.4,604.4 347.3,646.9 356.1,611.5 365.0,597.3 373.9,597.3 382.7,604.4 391.6,604.4 400.4,590.2 409.3,618.6 418.1,639.8 427.0,569.0 435.8,576.1 444.7,540.7 453.5,618.6 462.4,576.1 471.2,604.4 480.1,547.8 488.9,576.1 497.8,540.7 506.6,583.2 515.5,611.5 524.4,561.9 533.2,547.8 542.1,569.0 550.9,646.9 559.8,583.2 568.6,625.7 577.5,611.5 586.3,646.9 595.2,554.8 604.0,569.0 612.9,604.4 621.7,611.5 630.6,569.0 639.4,561.9 648.3,583.2 657.1,583.2 666.0,540.7" stroke-linejoin="round" stroke-linecap="round"/><text x="64.0" y="670.0" font-family="monospace" font-size="12" font-weight="600" fill="#ea580c">harrow avg 9.3 threads peak 24.0</text><text x="324.0" y="670.0" font-family="monospace" font-size="12" font-weight="600" fill="#64748b">axum avg 7.1 threads peak 16.0</text><g><rect x="714.0" y="428.0" width="642.0" height="260.0" rx="8" fill="#ffffff" stroke="#e2e8f0" stroke-width="1"/><rect x="714.0" y="428.0" width="642.0" height="4" rx="8" fill="#ea580c"/></g><text x="736.0" y="460.0" font-family="monospace" font-size="18" font-weight="700" fill="#ea580c">VMstat Context Switches</text><line x1="734.0" y1="654.0" x2="1336.0" y2="654.0" stroke="#e2e8f0" stroke-width="1"/><text x="1334.0" y="650.0" font-family="system-ui, -apple-system, sans-serif" font-size="10" font-weight="500" fill="#94a3b8">0.0 /s</text><line x1="734.0" y1="597.3" x2="1336.0" y2="597.3" stroke="#e2e8f0" stroke-width="1"/><text x="1334.0" y="593.3" font-family="system-ui, -apple-system, sans-serif" font-size="10" font-weight="500" fill="#94a3b8">572598.3 /s</text><line x1="734.0" y1="540.7" x2="1336.0" y2="540.7" stroke="#e2e8f0" stroke-width="1"/><text x="1334.0" y="536.7" font-family="system-ui, -apple-system, sans-serif" font-size="10" font-weight="500" fill="#94a3b8">1145196.7 /s</text><line x1="734.0" y1="484.0" x2="1336.0" y2="484.0" stroke="#e2e8f0" stroke-width="1"/><text x="1334.0" y="480.0" font-family="system-ui, -apple-system, sans-serif" font-size="10" font-weight="500" fill="#94a3b8">1717795.0 /s</text><polyline fill="none" stroke="#ea580c" stroke-width="2.5" points="734.0,654.0 742.9,654.0 751.7,653.9 760.6,654.0 769.4,654.0 778.3,654.0 787.1,654.0 796.0,654.0 804.8,654.0 813.7,654.0 822.5,653.3 831.4,494.8 840.2,489.1 849.1,488.6 857.9,487.5 866.8,487.8 875.6,487.4 884.5,486.5 893.4,487.0 902.2,485.3 911.1,486.5 919.9,488.5 928.8,487.8 937.6,487.6 946.5,488.0 955.3,485.2 964.2,486.3 973.0,486.1 981.9,488.2 990.7,487.4 999.6,488.7 1008.4,489.5 1017.3,488.0 1026.1,486.2 1035.0,486.0 1043.9,485.3 1052.7,484.5 1061.6,487.6 1070.4,487.5 1079.3,488.3 1088.1,485.7 1097.0,486.5 1105.8,487.2 1114.7,485.9 1123.5,486.3 1132.4,485.9 1141.2,485.6 1150.1,486.9 1158.9,487.3 1167.8,485.8 1176.6,485.1 1185.5,485.9 1194.4,485.4 1203.2,484.0 1212.1,486.1 1220.9,487.7 1229.8,484.8 1238.6,487.0 1247.5,485.7 1256.3,487.4 1265.2,486.2 1274.0,487.1 1282.9,485.5 1291.7,485.6 1300.6,488.5 1309.4,488.7 1318.3,484.8 1327.1,488.4 1336.0,486.7" stroke-linejoin="round" stroke-linecap="round"/><polyline fill="none" stroke="#64748b" stroke-width="2.5" points="734.0,654.0 742.9,654.0 751.7,653.9 760.6,654.0 769.4,654.0 778.3,654.0 787.1,654.0 796.0,654.0 804.8,654.0 813.7,654.0 822.5,654.0 831.4,628.2 840.2,628.1 849.1,627.9 857.9,627.8 866.8,627.8 875.6,628.4 884.5,627.9 893.4,627.7 902.2,627.7 911.1,627.9 919.9,627.9 928.8,627.7 937.6,627.3 946.5,627.2 955.3,627.1 964.2,626.5 973.0,627.1 981.9,626.9 990.7,626.5 999.6,626.6 1008.4,626.8 1017.3,626.8 1026.1,626.8 1035.0,626.7 1043.9,627.7 1052.7,627.3 1061.6,626.9 1070.4,627.1 1079.3,627.4 1088.1,627.3 1097.0,627.5 1105.8,627.4 1114.7,627.0 1123.5,626.9 1132.4,626.9 1141.2,626.9 1150.1,626.8 1158.9,627.0 1167.8,627.1 1176.6,626.9 1185.5,627.3 1194.4,627.0 1203.2,627.1 1212.1,626.8 1220.9,627.0 1229.8,627.2 1238.6,627.2 1247.5,626.7 1256.3,627.1 1265.2,627.0 1274.0,627.2 1282.9,627.4 1291.7,627.4 1300.6,627.6 1309.4,627.5 1318.3,627.4 1327.1,627.5 1336.0,627.6" stroke-linejoin="round" stroke-linecap="round"/><text x="734.0" y="670.0" font-family="monospace" font-size="12" font-weight="600" fill="#ea580c">harrow avg 1419408.7 /s peak 1717795.0</text><text x="994.0" y="670.0" font-family="monospace" font-size="12" font-weight="600" fill="#64748b">axum avg 227072.6 /s peak 278247.0</text></svg>